<mxfile host="app.diagrams.net" agent="Mozilla/5.0 (Macintosh; Intel Mac OS X 10_15_7) AppleWebKit/537.36 (KHTML, like Gecko) Chrome/128.0.0.0 Safari/537.36" version="24.7.14">
  <diagram name="Page-1" id="tVNEnuNayXjEJ6UIHJxD">
    <mxGraphModel grid="1" page="1" gridSize="10" guides="1" tooltips="1" connect="1" arrows="1" fold="1" pageScale="1" pageWidth="850" pageHeight="1100" math="0" shadow="0">
      <root>
        <mxCell id="0" />
        <mxCell id="1" parent="0" />
        <mxCell id="t9MqoLO25k7Q-6naxNPZ-1" value="Blocos" style="swimlane;fontStyle=1;align=center;verticalAlign=top;childLayout=stackLayout;horizontal=1;startSize=27;horizontalStack=0;resizeParent=1;resizeParentMax=0;resizeLast=0;collapsible=0;marginBottom=0;" vertex="1" parent="1">
          <mxGeometry x="138" y="20" width="207" height="170" as="geometry" />
        </mxCell>
        <mxCell id="t9MqoLO25k7Q-6naxNPZ-2" value="+int id" style="text;strokeColor=none;fillColor=none;align=left;verticalAlign=top;spacingLeft=4;spacingRight=4;overflow=hidden;rotatable=0;points=[[0,0.5],[1,0.5]];portConstraint=eastwest;" vertex="1" parent="t9MqoLO25k7Q-6naxNPZ-1">
          <mxGeometry y="27" width="207" height="27" as="geometry" />
        </mxCell>
        <mxCell id="t9MqoLO25k7Q-6naxNPZ-3" value="+string nome" style="text;strokeColor=none;fillColor=none;align=left;verticalAlign=top;spacingLeft=4;spacingRight=4;overflow=hidden;rotatable=0;points=[[0,0.5],[1,0.5]];portConstraint=eastwest;" vertex="1" parent="t9MqoLO25k7Q-6naxNPZ-1">
          <mxGeometry y="54" width="207" height="27" as="geometry" />
        </mxCell>
        <mxCell id="t9MqoLO25k7Q-6naxNPZ-4" value="+string descricao" style="text;strokeColor=none;fillColor=none;align=left;verticalAlign=top;spacingLeft=4;spacingRight=4;overflow=hidden;rotatable=0;points=[[0,0.5],[1,0.5]];portConstraint=eastwest;" vertex="1" parent="t9MqoLO25k7Q-6naxNPZ-1">
          <mxGeometry y="81" width="207" height="27" as="geometry" />
        </mxCell>
        <mxCell id="t9MqoLO25k7Q-6naxNPZ-5" style="line;strokeWidth=1;fillColor=none;align=left;verticalAlign=middle;spacingTop=-1;spacingLeft=3;spacingRight=3;rotatable=0;labelPosition=right;points=[];portConstraint=eastwest;strokeColor=inherit;" vertex="1" parent="t9MqoLO25k7Q-6naxNPZ-1">
          <mxGeometry y="108" width="207" height="8" as="geometry" />
        </mxCell>
        <mxCell id="t9MqoLO25k7Q-6naxNPZ-6" value="+numeric(10,8) : latitude" style="text;strokeColor=none;fillColor=none;align=left;verticalAlign=top;spacingLeft=4;spacingRight=4;overflow=hidden;rotatable=0;points=[[0,0.5],[1,0.5]];portConstraint=eastwest;" vertex="1" parent="t9MqoLO25k7Q-6naxNPZ-1">
          <mxGeometry y="116" width="207" height="27" as="geometry" />
        </mxCell>
        <mxCell id="t9MqoLO25k7Q-6naxNPZ-7" value="+numeric(11,8) : longitude" style="text;strokeColor=none;fillColor=none;align=left;verticalAlign=top;spacingLeft=4;spacingRight=4;overflow=hidden;rotatable=0;points=[[0,0.5],[1,0.5]];portConstraint=eastwest;" vertex="1" parent="t9MqoLO25k7Q-6naxNPZ-1">
          <mxGeometry y="143" width="207" height="27" as="geometry" />
        </mxCell>
        <mxCell id="t9MqoLO25k7Q-6naxNPZ-8" value="Andares" style="swimlane;fontStyle=1;align=center;verticalAlign=top;childLayout=stackLayout;horizontal=1;startSize=25.875;horizontalStack=0;resizeParent=1;resizeParentMax=0;resizeLast=0;collapsible=0;marginBottom=0;" vertex="1" parent="1">
          <mxGeometry x="128" y="259" width="226" height="215.875" as="geometry" />
        </mxCell>
        <mxCell id="t9MqoLO25k7Q-6naxNPZ-9" value="+int id" style="text;strokeColor=none;fillColor=none;align=left;verticalAlign=top;spacingLeft=4;spacingRight=4;overflow=hidden;rotatable=0;points=[[0,0.5],[1,0.5]];portConstraint=eastwest;" vertex="1" parent="t9MqoLO25k7Q-6naxNPZ-8">
          <mxGeometry y="25.875" width="226" height="26" as="geometry" />
        </mxCell>
        <mxCell id="t9MqoLO25k7Q-6naxNPZ-10" value="+int bloco_id" style="text;strokeColor=none;fillColor=none;align=left;verticalAlign=top;spacingLeft=4;spacingRight=4;overflow=hidden;rotatable=0;points=[[0,0.5],[1,0.5]];portConstraint=eastwest;" vertex="1" parent="t9MqoLO25k7Q-6naxNPZ-8">
          <mxGeometry y="51.875" width="226" height="26" as="geometry" />
        </mxCell>
        <mxCell id="t9MqoLO25k7Q-6naxNPZ-11" value="+int numero" style="text;strokeColor=none;fillColor=none;align=left;verticalAlign=top;spacingLeft=4;spacingRight=4;overflow=hidden;rotatable=0;points=[[0,0.5],[1,0.5]];portConstraint=eastwest;" vertex="1" parent="t9MqoLO25k7Q-6naxNPZ-8">
          <mxGeometry y="77.875" width="226" height="26" as="geometry" />
        </mxCell>
        <mxCell id="t9MqoLO25k7Q-6naxNPZ-12" value="+string nome" style="text;strokeColor=none;fillColor=none;align=left;verticalAlign=top;spacingLeft=4;spacingRight=4;overflow=hidden;rotatable=0;points=[[0,0.5],[1,0.5]];portConstraint=eastwest;" vertex="1" parent="t9MqoLO25k7Q-6naxNPZ-8">
          <mxGeometry y="103.875" width="226" height="26" as="geometry" />
        </mxCell>
        <mxCell id="t9MqoLO25k7Q-6naxNPZ-13" style="line;strokeWidth=1;fillColor=none;align=left;verticalAlign=middle;spacingTop=-1;spacingLeft=3;spacingRight=3;rotatable=0;labelPosition=right;points=[];portConstraint=eastwest;strokeColor=inherit;" vertex="1" parent="t9MqoLO25k7Q-6naxNPZ-8">
          <mxGeometry y="129.875" width="226" height="8" as="geometry" />
        </mxCell>
        <mxCell id="t9MqoLO25k7Q-6naxNPZ-14" value="+numeric(6,2) : altitude" style="text;strokeColor=none;fillColor=none;align=left;verticalAlign=top;spacingLeft=4;spacingRight=4;overflow=hidden;rotatable=0;points=[[0,0.5],[1,0.5]];portConstraint=eastwest;" vertex="1" parent="t9MqoLO25k7Q-6naxNPZ-8">
          <mxGeometry y="137.875" width="226" height="26" as="geometry" />
        </mxCell>
        <mxCell id="t9MqoLO25k7Q-6naxNPZ-15" value="+numeric(6,2) : altitude_min" style="text;strokeColor=none;fillColor=none;align=left;verticalAlign=top;spacingLeft=4;spacingRight=4;overflow=hidden;rotatable=0;points=[[0,0.5],[1,0.5]];portConstraint=eastwest;" vertex="1" parent="t9MqoLO25k7Q-6naxNPZ-8">
          <mxGeometry y="163.875" width="226" height="26" as="geometry" />
        </mxCell>
        <mxCell id="t9MqoLO25k7Q-6naxNPZ-16" value="+numeric(6,2) : altitude_max" style="text;strokeColor=none;fillColor=none;align=left;verticalAlign=top;spacingLeft=4;spacingRight=4;overflow=hidden;rotatable=0;points=[[0,0.5],[1,0.5]];portConstraint=eastwest;" vertex="1" parent="t9MqoLO25k7Q-6naxNPZ-8">
          <mxGeometry y="189.875" width="226" height="26" as="geometry" />
        </mxCell>
        <mxCell id="t9MqoLO25k7Q-6naxNPZ-17" value="Waypoints" style="swimlane;fontStyle=1;align=center;verticalAlign=top;childLayout=stackLayout;horizontal=1;startSize=24.352941176470587;horizontalStack=0;resizeParent=1;resizeParentMax=0;resizeLast=0;collapsible=0;marginBottom=0;" vertex="1" parent="1">
          <mxGeometry x="146" y="542" width="192" height="204.35294117647058" as="geometry" />
        </mxCell>
        <mxCell id="t9MqoLO25k7Q-6naxNPZ-18" value="+int id" style="text;strokeColor=none;fillColor=none;align=left;verticalAlign=top;spacingLeft=4;spacingRight=4;overflow=hidden;rotatable=0;points=[[0,0.5],[1,0.5]];portConstraint=eastwest;" vertex="1" parent="t9MqoLO25k7Q-6naxNPZ-17">
          <mxGeometry y="24.352941176470587" width="192" height="24" as="geometry" />
        </mxCell>
        <mxCell id="t9MqoLO25k7Q-6naxNPZ-19" value="+string nome" style="text;strokeColor=none;fillColor=none;align=left;verticalAlign=top;spacingLeft=4;spacingRight=4;overflow=hidden;rotatable=0;points=[[0,0.5],[1,0.5]];portConstraint=eastwest;" vertex="1" parent="t9MqoLO25k7Q-6naxNPZ-17">
          <mxGeometry y="48.35294117647059" width="192" height="24" as="geometry" />
        </mxCell>
        <mxCell id="t9MqoLO25k7Q-6naxNPZ-20" value="+string descricao" style="text;strokeColor=none;fillColor=none;align=left;verticalAlign=top;spacingLeft=4;spacingRight=4;overflow=hidden;rotatable=0;points=[[0,0.5],[1,0.5]];portConstraint=eastwest;" vertex="1" parent="t9MqoLO25k7Q-6naxNPZ-17">
          <mxGeometry y="72.35294117647058" width="192" height="24" as="geometry" />
        </mxCell>
        <mxCell id="t9MqoLO25k7Q-6naxNPZ-21" value="+string tipo" style="text;strokeColor=none;fillColor=none;align=left;verticalAlign=top;spacingLeft=4;spacingRight=4;overflow=hidden;rotatable=0;points=[[0,0.5],[1,0.5]];portConstraint=eastwest;" vertex="1" parent="t9MqoLO25k7Q-6naxNPZ-17">
          <mxGeometry y="96.35294117647058" width="192" height="24" as="geometry" />
        </mxCell>
        <mxCell id="t9MqoLO25k7Q-6naxNPZ-22" value="+int bloco_id" style="text;strokeColor=none;fillColor=none;align=left;verticalAlign=top;spacingLeft=4;spacingRight=4;overflow=hidden;rotatable=0;points=[[0,0.5],[1,0.5]];portConstraint=eastwest;" vertex="1" parent="t9MqoLO25k7Q-6naxNPZ-17">
          <mxGeometry y="120.35294117647058" width="192" height="24" as="geometry" />
        </mxCell>
        <mxCell id="t9MqoLO25k7Q-6naxNPZ-23" value="+int andar_id" style="text;strokeColor=none;fillColor=none;align=left;verticalAlign=top;spacingLeft=4;spacingRight=4;overflow=hidden;rotatable=0;points=[[0,0.5],[1,0.5]];portConstraint=eastwest;" vertex="1" parent="t9MqoLO25k7Q-6naxNPZ-17">
          <mxGeometry y="144.35294117647058" width="192" height="24" as="geometry" />
        </mxCell>
        <mxCell id="t9MqoLO25k7Q-6naxNPZ-24" value="+geography coordenadas" style="text;strokeColor=none;fillColor=none;align=left;verticalAlign=top;spacingLeft=4;spacingRight=4;overflow=hidden;rotatable=0;points=[[0,0.5],[1,0.5]];portConstraint=eastwest;" vertex="1" parent="t9MqoLO25k7Q-6naxNPZ-17">
          <mxGeometry y="168.35294117647058" width="192" height="24" as="geometry" />
        </mxCell>
        <mxCell id="t9MqoLO25k7Q-6naxNPZ-25" style="line;strokeWidth=1;fillColor=none;align=left;verticalAlign=middle;spacingTop=-1;spacingLeft=3;spacingRight=3;rotatable=0;labelPosition=right;points=[];portConstraint=eastwest;strokeColor=inherit;" vertex="1" parent="t9MqoLO25k7Q-6naxNPZ-17">
          <mxGeometry y="192.35294117647058" width="192" height="12" as="geometry" />
        </mxCell>
        <mxCell id="t9MqoLO25k7Q-6naxNPZ-26" value="Conexoes" style="swimlane;fontStyle=1;align=center;verticalAlign=top;childLayout=stackLayout;horizontal=1;startSize=27.9;horizontalStack=0;resizeParent=1;resizeParentMax=0;resizeLast=0;collapsible=0;marginBottom=0;" vertex="1" parent="1">
          <mxGeometry x="20" y="826" width="204" height="147.9" as="geometry" />
        </mxCell>
        <mxCell id="t9MqoLO25k7Q-6naxNPZ-27" value="+int id" style="text;strokeColor=none;fillColor=none;align=left;verticalAlign=top;spacingLeft=4;spacingRight=4;overflow=hidden;rotatable=0;points=[[0,0.5],[1,0.5]];portConstraint=eastwest;" vertex="1" parent="t9MqoLO25k7Q-6naxNPZ-26">
          <mxGeometry y="27.9" width="204" height="28" as="geometry" />
        </mxCell>
        <mxCell id="t9MqoLO25k7Q-6naxNPZ-28" value="+int waypoint_origem_id" style="text;strokeColor=none;fillColor=none;align=left;verticalAlign=top;spacingLeft=4;spacingRight=4;overflow=hidden;rotatable=0;points=[[0,0.5],[1,0.5]];portConstraint=eastwest;" vertex="1" parent="t9MqoLO25k7Q-6naxNPZ-26">
          <mxGeometry y="55.9" width="204" height="28" as="geometry" />
        </mxCell>
        <mxCell id="t9MqoLO25k7Q-6naxNPZ-29" value="+int waypoint_destino_id" style="text;strokeColor=none;fillColor=none;align=left;verticalAlign=top;spacingLeft=4;spacingRight=4;overflow=hidden;rotatable=0;points=[[0,0.5],[1,0.5]];portConstraint=eastwest;" vertex="1" parent="t9MqoLO25k7Q-6naxNPZ-26">
          <mxGeometry y="83.9" width="204" height="28" as="geometry" />
        </mxCell>
        <mxCell id="t9MqoLO25k7Q-6naxNPZ-30" style="line;strokeWidth=1;fillColor=none;align=left;verticalAlign=middle;spacingTop=-1;spacingLeft=3;spacingRight=3;rotatable=0;labelPosition=right;points=[];portConstraint=eastwest;strokeColor=inherit;" vertex="1" parent="t9MqoLO25k7Q-6naxNPZ-26">
          <mxGeometry y="111.9" width="204" height="8" as="geometry" />
        </mxCell>
        <mxCell id="t9MqoLO25k7Q-6naxNPZ-31" value="+numeric(10,2) : distancia" style="text;strokeColor=none;fillColor=none;align=left;verticalAlign=top;spacingLeft=4;spacingRight=4;overflow=hidden;rotatable=0;points=[[0,0.5],[1,0.5]];portConstraint=eastwest;" vertex="1" parent="t9MqoLO25k7Q-6naxNPZ-26">
          <mxGeometry y="119.9" width="204" height="28" as="geometry" />
        </mxCell>
        <mxCell id="t9MqoLO25k7Q-6naxNPZ-32" value="Destinos" style="swimlane;fontStyle=1;align=center;verticalAlign=top;childLayout=stackLayout;horizontal=1;startSize=25.363636363636363;horizontalStack=0;resizeParent=1;resizeParentMax=0;resizeLast=0;collapsible=0;marginBottom=0;" vertex="1" parent="1">
          <mxGeometry x="441" y="826" width="136" height="138.36363636363637" as="geometry" />
        </mxCell>
        <mxCell id="t9MqoLO25k7Q-6naxNPZ-33" value="+int id" style="text;strokeColor=none;fillColor=none;align=left;verticalAlign=top;spacingLeft=4;spacingRight=4;overflow=hidden;rotatable=0;points=[[0,0.5],[1,0.5]];portConstraint=eastwest;" vertex="1" parent="t9MqoLO25k7Q-6naxNPZ-32">
          <mxGeometry y="25.363636363636363" width="136" height="25" as="geometry" />
        </mxCell>
        <mxCell id="t9MqoLO25k7Q-6naxNPZ-34" value="+string nome" style="text;strokeColor=none;fillColor=none;align=left;verticalAlign=top;spacingLeft=4;spacingRight=4;overflow=hidden;rotatable=0;points=[[0,0.5],[1,0.5]];portConstraint=eastwest;" vertex="1" parent="t9MqoLO25k7Q-6naxNPZ-32">
          <mxGeometry y="50.36363636363636" width="136" height="25" as="geometry" />
        </mxCell>
        <mxCell id="t9MqoLO25k7Q-6naxNPZ-35" value="+string descricao" style="text;strokeColor=none;fillColor=none;align=left;verticalAlign=top;spacingLeft=4;spacingRight=4;overflow=hidden;rotatable=0;points=[[0,0.5],[1,0.5]];portConstraint=eastwest;" vertex="1" parent="t9MqoLO25k7Q-6naxNPZ-32">
          <mxGeometry y="75.36363636363636" width="136" height="25" as="geometry" />
        </mxCell>
        <mxCell id="t9MqoLO25k7Q-6naxNPZ-36" value="+int waypoint_id" style="text;strokeColor=none;fillColor=none;align=left;verticalAlign=top;spacingLeft=4;spacingRight=4;overflow=hidden;rotatable=0;points=[[0,0.5],[1,0.5]];portConstraint=eastwest;" vertex="1" parent="t9MqoLO25k7Q-6naxNPZ-32">
          <mxGeometry y="100.36363636363636" width="136" height="25" as="geometry" />
        </mxCell>
        <mxCell id="t9MqoLO25k7Q-6naxNPZ-37" style="line;strokeWidth=1;fillColor=none;align=left;verticalAlign=middle;spacingTop=-1;spacingLeft=3;spacingRight=3;rotatable=0;labelPosition=right;points=[];portConstraint=eastwest;strokeColor=inherit;" vertex="1" parent="t9MqoLO25k7Q-6naxNPZ-32">
          <mxGeometry y="125.36363636363636" width="136" height="13" as="geometry" />
        </mxCell>
        <mxCell id="t9MqoLO25k7Q-6naxNPZ-38" value="Usuarios" style="swimlane;fontStyle=1;align=center;verticalAlign=top;childLayout=stackLayout;horizontal=1;startSize=25.363636363636363;horizontalStack=0;resizeParent=1;resizeParentMax=0;resizeLast=0;collapsible=0;marginBottom=0;" vertex="1" parent="1">
          <mxGeometry x="438" y="576" width="227" height="138.36363636363637" as="geometry" />
        </mxCell>
        <mxCell id="t9MqoLO25k7Q-6naxNPZ-39" value="+int id" style="text;strokeColor=none;fillColor=none;align=left;verticalAlign=top;spacingLeft=4;spacingRight=4;overflow=hidden;rotatable=0;points=[[0,0.5],[1,0.5]];portConstraint=eastwest;" vertex="1" parent="t9MqoLO25k7Q-6naxNPZ-38">
          <mxGeometry y="25.363636363636363" width="227" height="25" as="geometry" />
        </mxCell>
        <mxCell id="t9MqoLO25k7Q-6naxNPZ-40" value="+string nome" style="text;strokeColor=none;fillColor=none;align=left;verticalAlign=top;spacingLeft=4;spacingRight=4;overflow=hidden;rotatable=0;points=[[0,0.5],[1,0.5]];portConstraint=eastwest;" vertex="1" parent="t9MqoLO25k7Q-6naxNPZ-38">
          <mxGeometry y="50.36363636363636" width="227" height="25" as="geometry" />
        </mxCell>
        <mxCell id="t9MqoLO25k7Q-6naxNPZ-41" value="+geography localizacao_atual" style="text;strokeColor=none;fillColor=none;align=left;verticalAlign=top;spacingLeft=4;spacingRight=4;overflow=hidden;rotatable=0;points=[[0,0.5],[1,0.5]];portConstraint=eastwest;" vertex="1" parent="t9MqoLO25k7Q-6naxNPZ-38">
          <mxGeometry y="75.36363636363636" width="227" height="25" as="geometry" />
        </mxCell>
        <mxCell id="t9MqoLO25k7Q-6naxNPZ-42" value="+int destino_id" style="text;strokeColor=none;fillColor=none;align=left;verticalAlign=top;spacingLeft=4;spacingRight=4;overflow=hidden;rotatable=0;points=[[0,0.5],[1,0.5]];portConstraint=eastwest;" vertex="1" parent="t9MqoLO25k7Q-6naxNPZ-38">
          <mxGeometry y="100.36363636363636" width="227" height="25" as="geometry" />
        </mxCell>
        <mxCell id="t9MqoLO25k7Q-6naxNPZ-43" style="line;strokeWidth=1;fillColor=none;align=left;verticalAlign=middle;spacingTop=-1;spacingLeft=3;spacingRight=3;rotatable=0;labelPosition=right;points=[];portConstraint=eastwest;strokeColor=inherit;" vertex="1" parent="t9MqoLO25k7Q-6naxNPZ-38">
          <mxGeometry y="125.36363636363636" width="227" height="13" as="geometry" />
        </mxCell>
        <mxCell id="t9MqoLO25k7Q-6naxNPZ-44" value="&quot;possui&quot;" style="curved=1;startArrow=none;endArrow=open;endSize=12;exitX=0.5;exitY=1;entryX=0.5;entryY=0;rounded=0;" edge="1" parent="1" source="t9MqoLO25k7Q-6naxNPZ-1" target="t9MqoLO25k7Q-6naxNPZ-8">
          <mxGeometry relative="1" as="geometry">
            <Array as="points" />
          </mxGeometry>
        </mxCell>
        <mxCell id="t9MqoLO25k7Q-6naxNPZ-45" value="1" style="edgeLabel;resizable=0;labelBackgroundColor=none;fontSize=12;align=right;verticalAlign=top;" vertex="1" parent="t9MqoLO25k7Q-6naxNPZ-44">
          <mxGeometry x="-1" relative="1" as="geometry" />
        </mxCell>
        <mxCell id="t9MqoLO25k7Q-6naxNPZ-46" value="0..*" style="edgeLabel;resizable=0;labelBackgroundColor=none;fontSize=12;align=left;verticalAlign=bottom;" vertex="1" parent="t9MqoLO25k7Q-6naxNPZ-44">
          <mxGeometry x="1" relative="1" as="geometry" />
        </mxCell>
        <mxCell id="t9MqoLO25k7Q-6naxNPZ-47" value="&quot;contém&quot;" style="curved=1;startArrow=none;endArrow=open;endSize=12;exitX=0.5;exitY=1;entryX=0.5;entryY=0;rounded=0;" edge="1" parent="1" source="t9MqoLO25k7Q-6naxNPZ-8" target="t9MqoLO25k7Q-6naxNPZ-17">
          <mxGeometry relative="1" as="geometry">
            <Array as="points" />
          </mxGeometry>
        </mxCell>
        <mxCell id="t9MqoLO25k7Q-6naxNPZ-48" value="1" style="edgeLabel;resizable=0;labelBackgroundColor=none;fontSize=12;align=right;verticalAlign=top;" vertex="1" parent="t9MqoLO25k7Q-6naxNPZ-47">
          <mxGeometry x="-1" relative="1" as="geometry" />
        </mxCell>
        <mxCell id="t9MqoLO25k7Q-6naxNPZ-49" value="0..*" style="edgeLabel;resizable=0;labelBackgroundColor=none;fontSize=12;align=left;verticalAlign=bottom;" vertex="1" parent="t9MqoLO25k7Q-6naxNPZ-47">
          <mxGeometry x="1" relative="1" as="geometry" />
        </mxCell>
        <mxCell id="t9MqoLO25k7Q-6naxNPZ-50" value="&quot;se conectam&quot;" style="curved=1;startArrow=none;endArrow=open;endSize=12;exitX=0;exitY=0.79;entryX=0.18;entryY=0;rounded=0;" edge="1" parent="1" source="t9MqoLO25k7Q-6naxNPZ-17" target="t9MqoLO25k7Q-6naxNPZ-26">
          <mxGeometry relative="1" as="geometry">
            <Array as="points">
              <mxPoint x="27" y="791" />
            </Array>
          </mxGeometry>
        </mxCell>
        <mxCell id="t9MqoLO25k7Q-6naxNPZ-51" value="1" style="edgeLabel;resizable=0;labelBackgroundColor=none;fontSize=12;align=right;verticalAlign=top;" vertex="1" parent="t9MqoLO25k7Q-6naxNPZ-50">
          <mxGeometry x="-1" relative="1" as="geometry" />
        </mxCell>
        <mxCell id="t9MqoLO25k7Q-6naxNPZ-52" value="0..*" style="edgeLabel;resizable=0;labelBackgroundColor=none;fontSize=12;align=left;verticalAlign=bottom;" vertex="1" parent="t9MqoLO25k7Q-6naxNPZ-50">
          <mxGeometry x="1" relative="1" as="geometry" />
        </mxCell>
        <mxCell id="t9MqoLO25k7Q-6naxNPZ-53" value="&quot;localiza&quot;" style="curved=1;startArrow=none;endArrow=open;endSize=12;exitX=1;exitY=0.82;entryX=0.15;entryY=0;rounded=0;" edge="1" parent="1" source="t9MqoLO25k7Q-6naxNPZ-17" target="t9MqoLO25k7Q-6naxNPZ-32">
          <mxGeometry relative="1" as="geometry">
            <Array as="points">
              <mxPoint x="440" y="791" />
            </Array>
          </mxGeometry>
        </mxCell>
        <mxCell id="t9MqoLO25k7Q-6naxNPZ-54" value="1" style="edgeLabel;resizable=0;labelBackgroundColor=none;fontSize=12;align=left;verticalAlign=top;" vertex="1" parent="t9MqoLO25k7Q-6naxNPZ-53">
          <mxGeometry x="-1" relative="1" as="geometry" />
        </mxCell>
        <mxCell id="t9MqoLO25k7Q-6naxNPZ-55" value="0..1" style="edgeLabel;resizable=0;labelBackgroundColor=none;fontSize=12;align=right;verticalAlign=bottom;" vertex="1" parent="t9MqoLO25k7Q-6naxNPZ-53">
          <mxGeometry x="1" relative="1" as="geometry" />
        </mxCell>
        <mxCell id="t9MqoLO25k7Q-6naxNPZ-56" value="&quot;escolhe&quot;" style="curved=1;startArrow=none;endArrow=open;endSize=12;exitX=0.5;exitY=0.99;entryX=0.71;entryY=0;rounded=0;" edge="1" parent="1" source="t9MqoLO25k7Q-6naxNPZ-38" target="t9MqoLO25k7Q-6naxNPZ-32">
          <mxGeometry relative="1" as="geometry">
            <Array as="points">
              <mxPoint x="552" y="791" />
            </Array>
          </mxGeometry>
        </mxCell>
        <mxCell id="t9MqoLO25k7Q-6naxNPZ-57" value="1" style="edgeLabel;resizable=0;labelBackgroundColor=none;fontSize=12;align=right;verticalAlign=top;" vertex="1" parent="t9MqoLO25k7Q-6naxNPZ-56">
          <mxGeometry x="-1" relative="1" as="geometry" />
        </mxCell>
        <mxCell id="t9MqoLO25k7Q-6naxNPZ-58" value="0..1" style="edgeLabel;resizable=0;labelBackgroundColor=none;fontSize=12;align=left;verticalAlign=bottom;" vertex="1" parent="t9MqoLO25k7Q-6naxNPZ-56">
          <mxGeometry x="1" relative="1" as="geometry" />
        </mxCell>
        <mxCell id="t9MqoLO25k7Q-6naxNPZ-59" value="&quot;waypoint_origem&quot;" style="curved=1;startArrow=none;endArrow=open;endSize=12;exitX=0.64;exitY=0;entryX=0.19;entryY=1;rounded=0;" edge="1" parent="1" source="t9MqoLO25k7Q-6naxNPZ-26" target="t9MqoLO25k7Q-6naxNPZ-17">
          <mxGeometry relative="1" as="geometry">
            <Array as="points">
              <mxPoint x="164" y="791" />
            </Array>
          </mxGeometry>
        </mxCell>
        <mxCell id="t9MqoLO25k7Q-6naxNPZ-60" value="1" style="edgeLabel;resizable=0;labelBackgroundColor=none;fontSize=12;align=right;verticalAlign=bottom;" vertex="1" parent="t9MqoLO25k7Q-6naxNPZ-59">
          <mxGeometry x="-1" relative="1" as="geometry" />
        </mxCell>
        <mxCell id="t9MqoLO25k7Q-6naxNPZ-61" value="1" style="edgeLabel;resizable=0;labelBackgroundColor=none;fontSize=12;align=left;verticalAlign=top;" vertex="1" parent="t9MqoLO25k7Q-6naxNPZ-59">
          <mxGeometry x="1" relative="1" as="geometry" />
        </mxCell>
        <mxCell id="t9MqoLO25k7Q-6naxNPZ-62" value="&quot;waypoint_destino&quot;" style="curved=1;startArrow=none;endArrow=open;endSize=12;exitX=1;exitY=0.12;entryX=0.8;entryY=1;rounded=0;" edge="1" parent="1" source="t9MqoLO25k7Q-6naxNPZ-26" target="t9MqoLO25k7Q-6naxNPZ-17">
          <mxGeometry relative="1" as="geometry">
            <Array as="points">
              <mxPoint x="319" y="791" />
            </Array>
          </mxGeometry>
        </mxCell>
        <mxCell id="t9MqoLO25k7Q-6naxNPZ-63" value="1" style="edgeLabel;resizable=0;labelBackgroundColor=none;fontSize=12;align=right;verticalAlign=bottom;" vertex="1" parent="t9MqoLO25k7Q-6naxNPZ-62">
          <mxGeometry x="-1" relative="1" as="geometry" />
        </mxCell>
        <mxCell id="t9MqoLO25k7Q-6naxNPZ-64" value="1" style="edgeLabel;resizable=0;labelBackgroundColor=none;fontSize=12;align=left;verticalAlign=top;" vertex="1" parent="t9MqoLO25k7Q-6naxNPZ-62">
          <mxGeometry x="1" relative="1" as="geometry" />
        </mxCell>
      </root>
    </mxGraphModel>
  </diagram>
</mxfile>
